<svg xmlns="http://www.w3.org/2000/svg" width="90" height="90" viewBox="0 0 90 90">
    <g fill="none" fill-rule="evenodd">
        <circle cx="45" cy="45" r="45" fill="#D0D0D0"/>
        <g fill="#FFF">
            <path d="M68.625 37.191L52.808 21.374a4.502 4.502 0 0 0-3.206-1.324c-1.214 0-2.353.47-3.207 1.324L21.324 46.445A4.504 4.504 0 0 0 20 49.651c0 1.214.47 2.353 1.324 3.206l1.95 1.951h.001l13.109 13.11h-1.815a1.041 1.041 0 0 0 0 2.08H55.38a1.04 1.04 0 0 0 0-2.08h-11.07l24.314-24.315a4.54 4.54 0 0 0 0-6.412zm-1.471 4.94L42.082 67.203c-.46.46-1.074.714-1.73.714h-.01c-.655 0-1.27-.254-1.73-.714l-13.13-13.13L49.56 29.995a1.04 1.04 0 0 0-1.472-1.472L24.011 52.601l-1.216-1.215a2.435 2.435 0 0 1-.714-1.735c0-.657.254-1.273.715-1.734l25.07-25.071a2.437 2.437 0 0 1 1.736-.715c.658 0 1.274.254 1.735.715l5.629 5.629-24.078 24.078a1.04 1.04 0 0 0 1.472 1.472l24.078-24.078 8.716 8.716a2.456 2.456 0 0 1 0 3.468z"/>
            <path d="M42.28 57.877l-3.358 3.359a1.04 1.04 0 0 0 1.472 1.471l3.358-3.358a1.041 1.041 0 0 0-1.472-1.472zM45.371 54.787l-.441.441A1.04 1.04 0 1 0 46.4 56.7l.442-.441a1.041 1.041 0 0 0-1.472-1.472zM59.715 36.029a1.041 1.041 0 0 0-1.472 0l-4.415 4.415a1.042 1.042 0 0 0 0 1.471l2.943 2.943a1.037 1.037 0 0 0 1.472 0l4.415-4.414a1.041 1.041 0 0 0 0-1.472l-2.943-2.943zm-2.208 6.622l-1.472-1.472 2.944-2.943 1.471 1.472-2.943 2.943zM51.252 27.872c.267 0 .533-.102.736-.305l.442-.442a1.04 1.04 0 1 0-1.472-1.471l-.442.441a1.041 1.041 0 0 0 .736 1.777zM30.46 54.981l-.441.442a1.04 1.04 0 0 0 1.471 1.471l.442-.441a1.04 1.04 0 0 0-1.472-1.472z"/>
        </g>
    </g>
</svg>
