<svg xmlns="http://www.w3.org/2000/svg" width="24" height="24" viewBox="0 0 24 24">
    <g fill="none" fill-rule="evenodd">
        <path fill="#F5A623" d="M9.407 11.818c-2.033 0-3.687 1.611-3.687 3.591C5.72 17.39 7.374 19 9.407 19s3.687-1.61 3.687-3.59c0-1.98-1.654-3.592-3.687-3.592m0 7.901C6.977 19.72 5 17.786 5 15.41s1.977-4.31 4.407-4.31c2.43 0 4.407 1.933 4.407 4.31s-1.977 4.31-4.407 4.31"/>
        <path fill="#4A4A4A" d="M8.608 6.464c-.1.19-.227.559-.237.667l.001 2.54c.19-.218.413-.473.66-.753.711-.808 1.586-1.803 2.09-2.446-1.693-.042-2.299-.026-2.514-.008m8.907 12.02c-.514 0-.958-.362-1.105-.937l-1.029-3.972a10.77 10.77 0 0 0-.828.093 5.324 5.324 0 0 1-.639.066.36.36 0 1 1 0-.72c.128 0 .318-.028.54-.06a8.806 8.806 0 0 1 1.204-.108.36.36 0 0 1 .348.269l1.101 4.252c.057.22.22.452.512.384.145-.036.182-.1.195-.12.047-.078.051-.215.01-.377l-.983-4.445a.587.587 0 0 1-.008-.072c-.07-.216-.409-.68-.558-.68l-3.592-.081a.36.36 0 0 1-.08-.012.361.361 0 0 1-.342-.532c.114-.206.22-.578.341-1.01.184-.65.413-1.457.811-2.178a.747.747 0 0 0-.148-.97l-.76-.618a1.551 1.551 0 0 1-.16-.147c-.082.06-.192.149-.3.235-.296.23-.424.332-.515.37-.527.654-1.31 1.543-1.958 2.28-.537.61-1.002 1.138-1.168 1.356a.361.361 0 0 1-.583-.014.36.36 0 0 1-.17-.306V7.116c.007-.233.265-1.05.51-1.251.101-.13.162-.198 3.991-.086a.273.273 0 0 1 .166-.02.666.666 0 0 1 .533.238c.027.028.06.062.106.1l.761.617a1.45 1.45 0 0 1 .312 1.9c-.344.626-.56 1.39-.735 2.005-.067.234-.128.452-.193.646l3.181.073c.43 0 .774.378.986.696.216.326.277.532.284.66l.971 4.393c.088.346.057.667-.093.916a1 1 0 0 1-.642.447 1.181 1.181 0 0 1-.274.034M14.832 3.72c-.613 0-1.111.483-1.111 1.077 0 .593.498 1.076 1.111 1.076s1.111-.483 1.111-1.076c0-.594-.498-1.077-1.111-1.077m0 2.873c-1.01 0-1.832-.806-1.832-1.796C13 3.806 13.822 3 14.832 3c1.01 0 1.832.806 1.832 1.797 0 .99-.822 1.796-1.832 1.796"/>
    </g>
</svg>
