<svg xmlns="http://www.w3.org/2000/svg" width="90" height="90" viewBox="0 0 90 90">
    <g fill="none" fill-rule="evenodd">
        <circle cx="45" cy="45" r="45" fill="#F5A623"/>
        <g fill="#FFF">
            <path d="M51.798 20.346a7.91 7.91 0 0 0-6.825 3.919 7.911 7.911 0 0 0-6.825-3.92c-4.358 0-7.905 3.547-7.905 7.906 0 4.39 2.5 8.716 7.23 12.51 3.482 2.796 6.92 4.321 7.065 4.385a1.077 1.077 0 0 0 .87 0c.144-.064 3.582-1.59 7.066-4.384 4.73-3.795 7.23-8.121 7.23-12.51 0-4.36-3.547-7.906-7.906-7.906zm-6.825 22.616c-2.264-1.106-12.569-6.59-12.569-14.71a5.75 5.75 0 0 1 5.744-5.745 5.75 5.75 0 0 1 5.745 5.744 1.08 1.08 0 1 0 2.16 0 5.75 5.75 0 0 1 5.745-5.744 5.751 5.751 0 0 1 5.745 5.744c0 8.122-10.305 13.605-12.57 14.71z"/>
            <path d="M54.342 29.606a1.08 1.08 0 0 0-1.385.645c-.83 2.278-2.89 4.268-4.472 5.538a1.08 1.08 0 0 0 1.353 1.686c2.613-2.098 4.346-4.28 5.149-6.485a1.08 1.08 0 0 0-.645-1.384zM40.757 55.683l-.003-.055c-.026-.27-.15-.51-.337-.684L32.7 47.227l-4.427-6.963a3.837 3.837 0 0 0-3.182-1.78V26.944a3.84 3.84 0 0 0-3.836-3.836c-1.026 0-1.99.4-2.713 1.124a3.814 3.814 0 0 0-1.123 2.712l.008 21.755c0 .243.083.48.235.671l9.982 12.563v6.044c0 .597.484 1.08 1.08 1.08h10.954a1.08 1.08 0 0 0 1.08-1.08V55.73l-.001-.047zm-2.16 11.213h-8.792v-5.34c0-.245-.082-.481-.234-.673L19.588 48.32l-.008-21.377c0-.447.175-.868.492-1.186a1.677 1.677 0 0 1 2.858 1.185v12.175a3.817 3.817 0 0 0-1.73 3.207c0 .729.207 1.44.599 2.056l4.734 7.447c.052.106.121.204.207.29l6.366 6.367a1.079 1.079 0 0 0 1.529 0 1.08 1.08 0 0 0 0-1.529l-6.26-6.26-4.753-7.475a1.669 1.669 0 0 1 .792-2.453 1.672 1.672 0 0 1 2.035.656l4.491 7.064c.043.067.092.129.148.184l7.51 7.51v10.715zM71.404 24.231a3.807 3.807 0 0 0-2.713-1.124 3.84 3.84 0 0 0-3.836 3.836v11.542a3.835 3.835 0 0 0-3.182 1.78l-4.427 6.962-7.734 7.734a1.1 1.1 0 0 0-.145.174l-.018.031c-.012.02-.024.039-.035.06l-.02.04-.025.054-.016.046-.02.054a.984.984 0 0 0-.035.162l-.006.045a1.241 1.241 0 0 0-.005.107v12.242c0 .597.484 1.08 1.08 1.08h10.954a1.08 1.08 0 0 0 1.08-1.08v-6.044l9.984-12.563c.152-.19.234-.428.234-.671l.008-21.755a3.814 3.814 0 0 0-1.123-2.712zM70.358 48.32l-9.983 12.563a1.08 1.08 0 0 0-.235.673v5.34h-8.792V56.18l7.51-7.51c.056-.055.106-.117.148-.184l4.49-7.064a1.674 1.674 0 1 1 2.827 1.797l-4.751 7.475-6.26 6.26a1.08 1.08 0 0 0 1.527 1.529l6.367-6.367a1.07 1.07 0 0 0 .202-.282l4.739-7.455c.392-.616.6-1.327.6-2.056a3.816 3.816 0 0 0-1.73-3.207V26.943a1.676 1.676 0 0 1 2.857-1.186c.317.318.491.739.491 1.185l-.007 21.378z"/>
        </g>
    </g>
</svg>
