<svg xmlns="http://www.w3.org/2000/svg" width="24" height="13" viewBox="0 0 24 13" fill="#4a4a4ae6">
    <path fill="#4a4a4ae6" fill-rule="evenodd" d="M23.555 6.191c0 1.706-.544 3.161-1.631 4.366-1.087 1.204-2.464 1.806-4.131 1.806a5.684 5.684 0 0 1-3.31-1.035c-.997-.69-1.918-1.79-2.764-3.3-.781 1.354-1.67 2.398-2.666 3.134-.996.736-2.067 1.104-3.213 1.104-1.706 0-3.106-.564-4.2-1.69C.548 9.45 0 7.962 0 6.113c0-1.745.547-3.2 1.64-4.365C2.735.583 4.135 0 5.84 0c2.357 0 4.33 1.426 5.918 4.277 1.614-2.8 3.626-4.199 6.035-4.199 1.732 0 3.125.57 4.18 1.71 1.054 1.138 1.582 2.607 1.582 4.403zM5.996 9.844c.86 0 1.644-.296 2.354-.889.71-.592 1.416-1.54 2.119-2.842-.651-1.263-1.332-2.197-2.041-2.802a3.692 3.692 0 0 0-2.471-.909c-.99 0-1.81.342-2.46 1.026-.652.683-.977 1.592-.977 2.724 0 1.081.315 1.966.947 2.657.631.69 1.474 1.035 2.53 1.035zM17.56 2.48c-.86 0-1.644.3-2.354.899-.71.599-1.422 1.536-2.139 2.812.664 1.263 1.355 2.2 2.07 2.813a3.68 3.68 0 0 0 2.462.918c.99 0 1.81-.348 2.46-1.045.652-.697.977-1.592.977-2.686 0-1.106-.329-2.002-.986-2.685-.658-.684-1.488-1.026-2.49-1.026z"/>
</svg>
