<svg xmlns="http://www.w3.org/2000/svg" width="70" height="70" viewBox="0 0 70 70">
    <path fill="#D6513C" fill-rule="evenodd" stroke="#4A4A4A" stroke-width="2" d="M34.148 61c-.41 0-.82-.148-1.152-.443a1020.828 1020.828 0 0 0-4.743-4.184C15.915 45.533 7 37.703 7 27.647 7 18.727 13.09 12 21.164 12c6.87 0 10.936 4.975 12.984 8.595C36.197 16.975 40.262 12 47.132 12c8.075 0 14.164 6.727 14.164 15.647 0 10.055-8.915 17.887-21.253 28.726-1.525 1.34-3.109 2.731-4.743 4.184a1.728 1.728 0 0 1-1.152.443"/>
</svg>
