<svg xmlns="http://www.w3.org/2000/svg" xmlns:xlink="http://www.w3.org/1999/xlink" width="70" height="70" viewBox="0 0 70 70">
    <defs>
        <path id="a" d="M.009.118H38.18V52.99H.01z"/>
    </defs>
    <g fill="none" fill-rule="evenodd">
        <path fill="#009F56" d="M39.226 18.44l2.866-9.637H27.415l2.695 9.636h9.116"/>
        <path fill="#00A157" d="M27.415 8.803l2.795 9.636h2.913L30.33 8.803h-2.914"/>
        <path fill="#009F56" d="M53.485 51.135c.348 4.943-3.421 9.062-8.351 9.062H25.183c-4.93 0-8.642-4.06-8.352-9.062l1.508-22.83c.348-4.944 4.64-9.063 9.512-9.063h14.615c4.93 0 9.222 4.06 9.511 9.062l1.508 22.831"/>
        <path fill="#00A157" d="M20.074 51.135l1.45-22.83c.335-4.944 4.465-9.063 9.153-9.063H27.44c-4.743 0-8.873 4.06-9.152 9.062l-1.451 22.831c-.335 4.943 3.292 9.062 8.036 9.062h3.237c-4.744-.059-8.371-4.119-8.036-9.062"/>
        <path fill="#EBAE35" d="M35.162 25.667c5.178 0 9.376 4.314 9.376 9.636 0 5.322-4.198 9.636-9.376 9.636-5.18 0-9.377-4.314-9.377-9.636 0-5.322 4.198-9.636 9.377-9.636"/>
        <g transform="translate(16 8)">
            <mask id="b" fill="#fff">
                <use xlink:href="#a"/>
            </mask>
            <path fill="#EBC03A" d="M12.48 27.148c0-4.77 3.445-8.716 7.923-9.364a9.193 9.193 0 0 0-1.32-.117c-5.11 0-9.244 4.24-9.244 9.48 0 5.242 4.134 9.482 9.244 9.482.459 0 .86-.059 1.32-.118-4.478-.648-7.923-4.593-7.923-9.363" mask="url(#b)"/>
            <path fill="#2C2420" d="M34.47 48.819c-1.379 1.531-3.33 2.355-5.397 2.355H9.265c-2.124 0-4.019-.824-5.397-2.355-1.378-1.531-2.067-3.533-1.952-5.712l1.493-22.85c.287-4.534 4.134-8.185 8.555-8.185h14.468c4.42 0 8.267 3.651 8.554 8.186l1.493 22.849c.057 2.12-.632 4.18-2.01 5.712zM13.053 1.943h5.225v8.304h-2.87l-2.355-8.304zm9.703 8.304h-2.756V1.943h5.225l-2.469 8.304zm15.387 32.742L36.65 20.14c-.344-5.477-4.995-9.893-10.334-9.893h-1.723l2.699-8.951c.057-.295.057-.59-.115-.825a.812.812 0 0 0-.689-.353H11.734c-.287 0-.574.176-.746.412-.173.236-.173.589-.115.824l2.64 8.893H11.85c-5.34 0-9.933 4.416-10.335 9.893L.022 42.989c-.173 2.65.689 5.182 2.411 7.067A9.044 9.044 0 0 0 9.15 53h19.808a9.044 9.044 0 0 0 6.717-2.944c1.837-1.885 2.698-4.417 2.469-7.067z" mask="url(#b)"/>
        </g>
        <path fill="#2C2420" d="M35.417 34.608c-1.327-.545-1.88-.968-1.88-1.875 0-.787.609-1.512 1.66-1.512.939 0 1.657.363 2.044.604l.443-1.451c-.443-.302-1.161-.544-1.99-.665v-1.633H33.98v1.814c-1.382.423-2.211 1.633-2.211 3.024 0 1.33.829 2.42 2.653 3.085 1.327.544 1.88 1.088 1.88 1.995 0 .908-.608 1.633-1.935 1.633-.885 0-1.88-.423-2.377-.786l-.498 1.573c.608.423 1.548.665 2.488.725v1.391h1.714v-1.572c1.492-.424 2.321-1.573 2.321-3.085 0-1.633-.884-2.54-2.598-3.265"/>
        <path fill="#2C2420" d="M35.19 43.904c-4.645 0-8.42-3.856-8.42-8.601 0-4.745 3.775-8.6 8.42-8.6 4.647 0 8.422 3.855 8.422 8.6-.059 4.745-3.833 8.6-8.421 8.6zm0-19.04c-5.633 0-10.22 4.686-10.22 10.439 0 5.754 4.587 10.44 10.22 10.44 5.634 0 10.164-4.686 10.164-10.44 0-5.753-4.588-10.44-10.163-10.44z"/>
    </g>
</svg>
